<svg width="327" height="320" viewBox="0 0 327 320" fill="none" xmlns="http://www.w3.org/2000/svg">
<rect x="24" y="24" width="131" height="32" rx="8" fill="#222531" fill-opacity="0.6"/>
<path d="M63.682 36.32V35.13H66.51V45H65.166V36.32H63.682ZM69.4795 43.502V45H67.9395V43.502H69.4795ZM77.7951 35.494C77.1138 35.4847 76.6378 35.6013 76.3671 35.844C76.1058 36.0867 75.9751 36.5067 75.9751 37.104V37.314H77.7951V38.434H75.9751V45H74.7011V38.434H73.5951V37.314H74.7011V37.006C74.7011 35.1673 75.7324 34.29 77.7951 34.374V35.494ZM86.0103 37.314V45H84.7363V43.194C84.5403 43.8193 84.1903 44.3 83.6863 44.636C83.1916 44.9627 82.6129 45.126 81.9503 45.126C81.0636 45.126 80.3449 44.8413 79.7943 44.272C79.2436 43.6933 78.9683 42.8673 78.9683 41.794V37.314H80.2423V41.668C80.2423 42.4333 80.4383 43.026 80.8303 43.446C81.2223 43.8567 81.7543 44.062 82.4263 44.062C83.1263 44.062 83.6863 43.838 84.1063 43.39C84.5263 42.9327 84.7363 42.27 84.7363 41.402V37.314H86.0103ZM91.7193 43.88V45H90.7673C89.9833 45 89.3953 44.8133 89.0033 44.44C88.6206 44.0667 88.4293 43.4413 88.4293 42.564V38.42H87.2813V37.314H88.4293V35.396H89.7173V37.314H91.7053V38.42H89.7173V42.592C89.7173 43.0867 89.806 43.4273 89.9833 43.614C90.17 43.7913 90.4873 43.88 90.9353 43.88H91.7193ZM100.106 37.314V45H98.832V43.194C98.636 43.8193 98.286 44.3 97.782 44.636C97.2873 44.9627 96.7086 45.126 96.046 45.126C95.1593 45.126 94.4406 44.8413 93.89 44.272C93.3393 43.6933 93.064 42.8673 93.064 41.794V37.314H94.338V41.668C94.338 42.4333 94.534 43.026 94.926 43.446C95.318 43.8567 95.85 44.062 96.522 44.062C97.222 44.062 97.782 43.838 98.202 43.39C98.622 42.9327 98.832 42.27 98.832 41.402V37.314H100.106ZM103.421 38.868C103.673 38.336 104.042 37.9253 104.527 37.636C105.012 37.3373 105.591 37.188 106.263 37.188V38.574H105.871C105.152 38.574 104.564 38.7607 104.107 39.134C103.65 39.498 103.421 40.1047 103.421 40.954V45H102.147V37.314H103.421V38.868ZM114.59 40.73C114.59 41.0007 114.571 41.234 114.534 41.43H108.388C108.416 42.3073 108.663 42.9653 109.13 43.404C109.606 43.8427 110.185 44.062 110.866 44.062C111.482 44.062 111.995 43.908 112.406 43.6C112.826 43.2827 113.083 42.8627 113.176 42.34H114.534C114.441 42.872 114.231 43.348 113.904 43.768C113.587 44.188 113.171 44.5147 112.658 44.748C112.145 44.9813 111.566 45.098 110.922 45.098C110.185 45.098 109.531 44.9393 108.962 44.622C108.393 44.3047 107.945 43.852 107.618 43.264C107.301 42.6667 107.142 41.9667 107.142 41.164C107.142 40.3613 107.301 39.6613 107.618 39.064C107.945 38.4667 108.393 38.0093 108.962 37.692C109.531 37.3747 110.185 37.216 110.922 37.216C111.669 37.216 112.317 37.3747 112.868 37.692C113.428 38.0093 113.853 38.434 114.142 38.966C114.441 39.498 114.59 40.086 114.59 40.73ZM113.302 40.814C113.33 40.2447 113.237 39.7687 113.022 39.386C112.807 39.0033 112.513 38.7187 112.14 38.532C111.767 38.3453 111.361 38.252 110.922 38.252C110.222 38.252 109.634 38.4713 109.158 38.91C108.682 39.3393 108.425 39.974 108.388 40.814H113.302Z" fill="white"/>
<rect x="24" y="72" width="131" height="32" rx="8" fill="#222531" fill-opacity="0.6"/>
<path d="M70.588 92.02C72.1747 90.956 73.444 89.9013 74.396 88.856C75.348 87.8013 75.824 86.8213 75.824 85.916C75.824 85.356 75.6793 84.908 75.39 84.572C75.11 84.2267 74.6527 84.054 74.018 84.054C73.3647 84.054 72.87 84.264 72.534 84.684C72.198 85.0947 72.0113 85.664 71.974 86.392H70.714C70.7793 85.2907 71.12 84.446 71.736 83.858C72.352 83.2607 73.1453 82.962 74.116 82.962C75.04 82.962 75.7727 83.2093 76.314 83.704C76.8553 84.1987 77.126 84.8987 77.126 85.804C77.126 86.5507 76.8833 87.3113 76.398 88.086C75.922 88.8513 75.32 89.5653 74.592 90.228C73.8733 90.8813 73.1313 91.4367 72.366 91.894H77.378V92.944H70.588V92.02ZM79.9034 91.502V93H78.3634V91.502H79.9034ZM91.6489 85.314V93H90.3749V91.194C90.1789 91.8193 89.8289 92.3 89.3249 92.636C88.8303 92.9627 88.2516 93.126 87.5889 93.126C86.7023 93.126 85.9836 92.8413 85.4329 92.272C84.8823 91.6933 84.6069 90.8673 84.6069 89.794V85.314H85.8809V89.668C85.8809 90.4333 86.0769 91.026 86.4689 91.446C86.8609 91.8567 87.3929 92.062 88.0649 92.062C88.7649 92.062 89.3249 91.838 89.7449 91.39C90.1649 90.9327 90.3749 90.27 90.3749 89.402V85.314H91.6489ZM96.098 85.216C96.966 85.216 97.6613 85.4447 98.184 85.902C98.716 86.35 99.038 86.9567 99.15 87.722H97.932C97.876 87.2647 97.6846 86.8913 97.358 86.602C97.0406 86.3033 96.6113 86.154 96.07 86.154C95.6126 86.154 95.2533 86.266 94.992 86.49C94.74 86.7047 94.614 86.9987 94.614 87.372C94.614 87.652 94.698 87.8807 94.866 88.058C95.0433 88.226 95.258 88.3567 95.51 88.45C95.7713 88.534 96.126 88.6273 96.574 88.73C97.1433 88.8607 97.6006 88.996 97.946 89.136C98.3006 89.2667 98.5993 89.4813 98.842 89.78C99.094 90.0787 99.22 90.48 99.22 90.984C99.22 91.6093 98.982 92.118 98.506 92.51C98.0393 92.902 97.414 93.098 96.63 93.098C95.7153 93.098 94.9686 92.8787 94.39 92.44C93.8113 92.0013 93.4706 91.39 93.368 90.606H94.6C94.6466 91.0727 94.8473 91.4507 95.202 91.74C95.566 92.0293 96.042 92.174 96.63 92.174C97.0686 92.174 97.4093 92.062 97.652 91.838C97.904 91.614 98.03 91.32 98.03 90.956C98.03 90.6573 97.9413 90.4193 97.764 90.242C97.5866 90.0647 97.3673 89.9293 97.106 89.836C96.8446 89.7427 96.4853 89.6447 96.028 89.542C95.4586 89.4113 95.0013 89.2807 94.656 89.15C94.32 89.0193 94.0306 88.814 93.788 88.534C93.5546 88.2447 93.438 87.8573 93.438 87.372C93.438 86.728 93.676 86.21 94.152 85.818C94.628 85.4167 95.2766 85.216 96.098 85.216ZM107.992 88.73C107.992 89.0007 107.974 89.234 107.936 89.43H101.79C101.818 90.3073 102.066 90.9653 102.532 91.404C103.008 91.8427 103.587 92.062 104.268 92.062C104.884 92.062 105.398 91.908 105.808 91.6C106.228 91.2827 106.485 90.8627 106.578 90.34H107.936C107.843 90.872 107.633 91.348 107.306 91.768C106.989 92.188 106.574 92.5147 106.06 92.748C105.547 92.9813 104.968 93.098 104.324 93.098C103.587 93.098 102.934 92.9393 102.364 92.622C101.795 92.3047 101.347 91.852 101.02 91.264C100.703 90.6667 100.544 89.9667 100.544 89.164C100.544 88.3613 100.703 87.6613 101.02 87.064C101.347 86.4667 101.795 86.0093 102.364 85.692C102.934 85.3747 103.587 85.216 104.324 85.216C105.071 85.216 105.72 85.3747 106.27 85.692C106.83 86.0093 107.255 86.434 107.544 86.966C107.843 87.498 107.992 88.086 107.992 88.73ZM106.704 88.814C106.732 88.2447 106.639 87.7687 106.424 87.386C106.21 87.0033 105.916 86.7187 105.542 86.532C105.169 86.3453 104.763 86.252 104.324 86.252C103.624 86.252 103.036 86.4713 102.56 86.91C102.084 87.3393 101.828 87.974 101.79 88.814H106.704Z" fill="white"/>
<rect x="24" y="120" width="131" height="32" rx="8" fill="#222531" fill-opacity="0.6"/>
<path d="M64.686 130.864C65.3207 130.864 65.8667 130.976 66.324 131.2C66.7813 131.424 67.1267 131.732 67.36 132.124C67.5933 132.516 67.71 132.959 67.71 133.454C67.71 134.07 67.528 134.588 67.164 135.008C66.8093 135.428 66.2867 135.68 65.596 135.764V135.848C66.3147 136.035 66.8747 136.324 67.276 136.716C67.6867 137.108 67.892 137.649 67.892 138.34C67.892 139.152 67.6213 139.815 67.08 140.328C66.5387 140.841 65.7593 141.098 64.742 141.098C63.7247 141.098 62.8987 140.837 62.264 140.314C61.6387 139.782 61.27 139.007 61.158 137.99H62.418C62.502 138.606 62.7353 139.096 63.118 139.46C63.51 139.824 64.0373 140.006 64.7 140.006C65.3253 140.006 65.806 139.847 66.142 139.53C66.478 139.203 66.646 138.783 66.646 138.27C66.646 137.654 66.4033 137.187 65.918 136.87C65.442 136.543 64.7607 136.38 63.874 136.38H63.538V135.316H63.874C65.5913 135.316 66.45 134.742 66.45 133.594C66.45 133.09 66.2913 132.689 65.974 132.39C65.6567 132.091 65.218 131.942 64.658 131.942C64.098 131.942 63.6267 132.105 63.244 132.432C62.8613 132.749 62.6373 133.221 62.572 133.846H61.326C61.3913 132.913 61.7133 132.185 62.292 131.662C62.88 131.13 63.678 130.864 64.686 130.864ZM70.7041 139.502V141H69.1641V139.502H70.7041ZM78.7677 133.216C79.5144 133.216 80.1444 133.403 80.6577 133.776C81.1804 134.149 81.5444 134.649 81.7497 135.274V133.314H83.0237V141H81.7497V139.04C81.5444 139.665 81.1804 140.165 80.6577 140.538C80.1444 140.911 79.5144 141.098 78.7677 141.098C78.0864 141.098 77.4797 140.939 76.9477 140.622C76.4157 140.305 75.9957 139.852 75.6877 139.264C75.389 138.667 75.2397 137.967 75.2397 137.164C75.2397 136.361 75.389 135.661 75.6877 135.064C75.9957 134.467 76.4157 134.009 76.9477 133.692C77.4797 133.375 78.0864 133.216 78.7677 133.216ZM79.1317 134.35C78.3477 134.35 77.7177 134.602 77.2417 135.106C76.775 135.601 76.5417 136.287 76.5417 137.164C76.5417 138.041 76.775 138.732 77.2417 139.236C77.7177 139.731 78.3477 139.978 79.1317 139.978C79.6357 139.978 80.0837 139.861 80.4757 139.628C80.877 139.395 81.1897 139.068 81.4137 138.648C81.6377 138.219 81.7497 137.724 81.7497 137.164C81.7497 136.604 81.6377 136.109 81.4137 135.68C81.1897 135.251 80.877 134.924 80.4757 134.7C80.0837 134.467 79.6357 134.35 79.1317 134.35ZM89.2933 133.216C89.9746 133.216 90.5813 133.375 91.1133 133.692C91.6453 134.009 92.0606 134.467 92.3593 135.064C92.6673 135.661 92.8213 136.361 92.8213 137.164C92.8213 137.967 92.6673 138.667 92.3593 139.264C92.0606 139.852 91.6453 140.305 91.1133 140.622C90.5813 140.939 89.9746 141.098 89.2933 141.098C88.5466 141.098 87.912 140.911 87.3893 140.538C86.876 140.155 86.5213 139.656 86.3253 139.04V141H85.0513V130.64H86.3253V135.274C86.5213 134.658 86.876 134.163 87.3893 133.79C87.912 133.407 88.5466 133.216 89.2933 133.216ZM88.9293 134.35C88.4346 134.35 87.9866 134.467 87.5853 134.7C87.184 134.924 86.8713 135.251 86.6473 135.68C86.4233 136.109 86.3113 136.604 86.3113 137.164C86.3113 137.724 86.4233 138.219 86.6473 138.648C86.8713 139.068 87.184 139.395 87.5853 139.628C87.9866 139.861 88.4346 139.978 88.9293 139.978C89.7226 139.978 90.3526 139.731 90.8193 139.236C91.2953 138.732 91.5333 138.041 91.5333 137.164C91.5333 136.287 91.2953 135.601 90.8193 135.106C90.3526 134.602 89.7226 134.35 88.9293 134.35ZM101.317 133.314V141H100.043V139.194C99.8469 139.819 99.4969 140.3 98.9929 140.636C98.4982 140.963 97.9196 141.126 97.2569 141.126C96.3702 141.126 95.6516 140.841 95.1009 140.272C94.5502 139.693 94.2749 138.867 94.2749 137.794V133.314H95.5489V137.668C95.5489 138.433 95.7449 139.026 96.1369 139.446C96.5289 139.857 97.0609 140.062 97.7329 140.062C98.4329 140.062 98.9929 139.838 99.4129 139.39C99.8329 138.933 100.043 138.27 100.043 137.402V133.314H101.317ZM105.766 133.216C106.634 133.216 107.329 133.445 107.852 133.902C108.384 134.35 108.706 134.957 108.818 135.722H107.6C107.544 135.265 107.353 134.891 107.026 134.602C106.709 134.303 106.279 134.154 105.738 134.154C105.281 134.154 104.921 134.266 104.66 134.49C104.408 134.705 104.282 134.999 104.282 135.372C104.282 135.652 104.366 135.881 104.534 136.058C104.711 136.226 104.926 136.357 105.178 136.45C105.439 136.534 105.794 136.627 106.242 136.73C106.811 136.861 107.269 136.996 107.614 137.136C107.969 137.267 108.267 137.481 108.51 137.78C108.762 138.079 108.888 138.48 108.888 138.984C108.888 139.609 108.65 140.118 108.174 140.51C107.707 140.902 107.082 141.098 106.298 141.098C105.383 141.098 104.637 140.879 104.058 140.44C103.479 140.001 103.139 139.39 103.036 138.606H104.268C104.315 139.073 104.515 139.451 104.87 139.74C105.234 140.029 105.71 140.174 106.298 140.174C106.737 140.174 107.077 140.062 107.32 139.838C107.572 139.614 107.698 139.32 107.698 138.956C107.698 138.657 107.609 138.419 107.432 138.242C107.255 138.065 107.035 137.929 106.774 137.836C106.513 137.743 106.153 137.645 105.696 137.542C105.127 137.411 104.669 137.281 104.324 137.15C103.988 137.019 103.699 136.814 103.456 136.534C103.223 136.245 103.106 135.857 103.106 135.372C103.106 134.728 103.344 134.21 103.82 133.818C104.296 133.417 104.945 133.216 105.766 133.216ZM117.66 136.73C117.66 137.001 117.642 137.234 117.604 137.43H111.458C111.486 138.307 111.734 138.965 112.2 139.404C112.676 139.843 113.255 140.062 113.936 140.062C114.552 140.062 115.066 139.908 115.476 139.6C115.896 139.283 116.153 138.863 116.246 138.34H117.604C117.511 138.872 117.301 139.348 116.974 139.768C116.657 140.188 116.242 140.515 115.728 140.748C115.215 140.981 114.636 141.098 113.992 141.098C113.255 141.098 112.602 140.939 112.032 140.622C111.463 140.305 111.015 139.852 110.688 139.264C110.371 138.667 110.212 137.967 110.212 137.164C110.212 136.361 110.371 135.661 110.688 135.064C111.015 134.467 111.463 134.009 112.032 133.692C112.602 133.375 113.255 133.216 113.992 133.216C114.739 133.216 115.388 133.375 115.938 133.692C116.498 134.009 116.923 134.434 117.212 134.966C117.511 135.498 117.66 136.086 117.66 136.73ZM116.372 136.814C116.4 136.245 116.307 135.769 116.092 135.386C115.878 135.003 115.584 134.719 115.21 134.532C114.837 134.345 114.431 134.252 113.992 134.252C113.292 134.252 112.704 134.471 112.228 134.91C111.752 135.339 111.496 135.974 111.458 136.814H116.372Z" fill="white"/>
<rect x="24" y="216" width="131" height="32" rx="8" fill="#222531" fill-opacity="0.6"/>
<path d="M58.448 228.138H53.38V231.442C53.6133 231.125 53.9493 230.873 54.388 230.686C54.8267 230.499 55.3073 230.406 55.83 230.406C56.53 230.406 57.1087 230.555 57.566 230.854C58.0327 231.143 58.3733 231.531 58.588 232.016C58.812 232.492 58.924 233.024 58.924 233.612C58.924 234.629 58.6393 235.46 58.07 236.104C57.5007 236.748 56.6653 237.07 55.564 237.07C54.5747 237.07 53.7673 236.804 53.142 236.272C52.5167 235.731 52.1667 235.007 52.092 234.102H53.352C53.4547 234.681 53.6927 235.133 54.066 235.46C54.4487 235.777 54.9293 235.936 55.508 235.936C56.2267 235.936 56.768 235.721 57.132 235.292C57.496 234.863 57.678 234.298 57.678 233.598C57.678 232.917 57.4913 232.385 57.118 232.002C56.7447 231.619 56.2173 231.428 55.536 231.428C55.0507 231.428 54.626 231.535 54.262 231.75C53.898 231.955 53.6227 232.235 53.436 232.59H52.204V227.004H58.448V228.138ZM61.587 235.502V237H60.047V235.502H61.587ZM69.6505 229.216C70.3972 229.216 71.0272 229.403 71.5405 229.776C72.0632 230.149 72.4272 230.649 72.6325 231.274V226.64H73.9065V237H72.6325V235.04C72.4272 235.665 72.0632 236.165 71.5405 236.538C71.0272 236.911 70.3972 237.098 69.6505 237.098C68.9692 237.098 68.3625 236.939 67.8305 236.622C67.2985 236.305 66.8785 235.852 66.5705 235.264C66.2718 234.667 66.1225 233.967 66.1225 233.164C66.1225 232.361 66.2718 231.661 66.5705 231.064C66.8785 230.467 67.2985 230.009 67.8305 229.692C68.3625 229.375 68.9692 229.216 69.6505 229.216ZM70.0145 230.35C69.2305 230.35 68.6005 230.602 68.1245 231.106C67.6578 231.601 67.4245 232.287 67.4245 233.164C67.4245 234.041 67.6578 234.732 68.1245 235.236C68.6005 235.731 69.2305 235.978 70.0145 235.978C70.5185 235.978 70.9665 235.861 71.3585 235.628C71.7598 235.395 72.0725 235.068 72.2965 234.648C72.5205 234.219 72.6325 233.724 72.6325 233.164C72.6325 232.604 72.5205 232.109 72.2965 231.68C72.0725 231.251 71.7598 230.924 71.3585 230.7C70.9665 230.467 70.5185 230.35 70.0145 230.35ZM75.7101 227.06C75.7101 226.827 75.7894 226.64 75.9481 226.5C76.1068 226.351 76.3168 226.276 76.5781 226.276C76.8394 226.276 77.0494 226.351 77.2081 226.5C77.3668 226.64 77.4461 226.827 77.4461 227.06C77.4461 227.293 77.3668 227.485 77.2081 227.634C77.0494 227.774 76.8394 227.844 76.5781 227.844C76.3168 227.844 76.1068 227.774 75.9481 227.634C75.7894 227.485 75.7101 227.293 75.7101 227.06ZM77.2081 229.314V237H75.9341V229.314H77.2081ZM81.6644 229.216C82.5324 229.216 83.2277 229.445 83.7504 229.902C84.2824 230.35 84.6044 230.957 84.7164 231.722H83.4984C83.4424 231.265 83.251 230.891 82.9244 230.602C82.607 230.303 82.1777 230.154 81.6364 230.154C81.179 230.154 80.8197 230.266 80.5584 230.49C80.3064 230.705 80.1804 230.999 80.1804 231.372C80.1804 231.652 80.2644 231.881 80.4324 232.058C80.6097 232.226 80.8244 232.357 81.0764 232.45C81.3377 232.534 81.6924 232.627 82.1404 232.73C82.7097 232.861 83.167 232.996 83.5124 233.136C83.867 233.267 84.1657 233.481 84.4084 233.78C84.6604 234.079 84.7864 234.48 84.7864 234.984C84.7864 235.609 84.5484 236.118 84.0724 236.51C83.6057 236.902 82.9804 237.098 82.1964 237.098C81.2817 237.098 80.535 236.879 79.9564 236.44C79.3777 236.001 79.037 235.39 78.9344 234.606H80.1664C80.213 235.073 80.4137 235.451 80.7684 235.74C81.1324 236.029 81.6084 236.174 82.1964 236.174C82.635 236.174 82.9757 236.062 83.2184 235.838C83.4704 235.614 83.5964 235.32 83.5964 234.956C83.5964 234.657 83.5077 234.419 83.3304 234.242C83.153 234.065 82.9337 233.929 82.6724 233.836C82.411 233.743 82.0517 233.645 81.5944 233.542C81.025 233.411 80.5677 233.281 80.2224 233.15C79.8864 233.019 79.597 232.814 79.3544 232.534C79.121 232.245 79.0044 231.857 79.0044 231.372C79.0044 230.728 79.2424 230.21 79.7184 229.818C80.1944 229.417 80.843 229.216 81.6644 229.216ZM89.6388 229.216C90.3855 229.216 91.0155 229.403 91.5288 229.776C92.0515 230.149 92.4155 230.649 92.6208 231.274V229.314H93.8948V237H92.6208V235.04C92.4155 235.665 92.0515 236.165 91.5288 236.538C91.0155 236.911 90.3855 237.098 89.6388 237.098C88.9575 237.098 88.3508 236.939 87.8188 236.622C87.2868 236.305 86.8668 235.852 86.5588 235.264C86.2601 234.667 86.1108 233.967 86.1108 233.164C86.1108 232.361 86.2601 231.661 86.5588 231.064C86.8668 230.467 87.2868 230.009 87.8188 229.692C88.3508 229.375 88.9575 229.216 89.6388 229.216ZM90.0028 230.35C89.2188 230.35 88.5888 230.602 88.1128 231.106C87.6461 231.601 87.4128 232.287 87.4128 233.164C87.4128 234.041 87.6461 234.732 88.1128 235.236C88.5888 235.731 89.2188 235.978 90.0028 235.978C90.5068 235.978 90.9548 235.861 91.3468 235.628C91.7481 235.395 92.0608 235.068 92.2848 234.648C92.5088 234.219 92.6208 233.724 92.6208 233.164C92.6208 232.604 92.5088 232.109 92.2848 231.68C92.0608 231.251 91.7481 230.924 91.3468 230.7C90.9548 230.467 90.5068 230.35 90.0028 230.35ZM99.0724 229.216C99.8191 229.216 100.449 229.403 100.962 229.776C101.485 230.149 101.849 230.649 102.054 231.274V229.314H103.328V237.126C103.328 237.835 103.179 238.465 102.88 239.016C102.582 239.567 102.162 239.996 101.62 240.304C101.079 240.612 100.449 240.766 99.7304 240.766C98.6944 240.766 97.8497 240.514 97.1964 240.01C96.5431 239.515 96.1277 238.843 95.9504 237.994H97.2104C97.3597 238.507 97.6397 238.909 98.0504 239.198C98.4704 239.497 99.0071 239.646 99.6604 239.646C100.351 239.646 100.92 239.422 101.368 238.974C101.826 238.535 102.054 237.919 102.054 237.126V235.04C101.849 235.665 101.485 236.165 100.962 236.538C100.449 236.911 99.8191 237.098 99.0724 237.098C98.3911 237.098 97.7844 236.939 97.2524 236.622C96.7204 236.305 96.3004 235.852 95.9924 235.264C95.6937 234.667 95.5444 233.967 95.5444 233.164C95.5444 232.361 95.6937 231.661 95.9924 231.064C96.3004 230.467 96.7204 230.009 97.2524 229.692C97.7844 229.375 98.3911 229.216 99.0724 229.216ZM99.4364 230.35C98.6524 230.35 98.0224 230.602 97.5464 231.106C97.0797 231.601 96.8464 232.287 96.8464 233.164C96.8464 234.041 97.0797 234.732 97.5464 235.236C98.0224 235.731 98.6524 235.978 99.4364 235.978C99.9404 235.978 100.388 235.861 100.78 235.628C101.182 235.395 101.494 235.068 101.718 234.648C101.942 234.219 102.054 233.724 102.054 233.164C102.054 232.604 101.942 232.109 101.718 231.68C101.494 231.251 101.182 230.924 100.78 230.7C100.388 230.467 99.9404 230.35 99.4364 230.35ZM106.63 230.868C106.882 230.336 107.251 229.925 107.736 229.636C108.221 229.337 108.8 229.188 109.472 229.188V230.574H109.08C108.361 230.574 107.773 230.761 107.316 231.134C106.859 231.498 106.63 232.105 106.63 232.954V237H105.356V229.314H106.63V230.868ZM117.799 232.73C117.799 233.001 117.78 233.234 117.743 233.43H111.597C111.625 234.307 111.872 234.965 112.339 235.404C112.815 235.843 113.394 236.062 114.075 236.062C114.691 236.062 115.204 235.908 115.615 235.6C116.035 235.283 116.292 234.863 116.385 234.34H117.743C117.65 234.872 117.44 235.348 117.113 235.768C116.796 236.188 116.38 236.515 115.867 236.748C115.354 236.981 114.775 237.098 114.131 237.098C113.394 237.098 112.74 236.939 112.171 236.622C111.602 236.305 111.154 235.852 110.827 235.264C110.51 234.667 110.351 233.967 110.351 233.164C110.351 232.361 110.51 231.661 110.827 231.064C111.154 230.467 111.602 230.009 112.171 229.692C112.74 229.375 113.394 229.216 114.131 229.216C114.878 229.216 115.526 229.375 116.077 229.692C116.637 230.009 117.062 230.434 117.351 230.966C117.65 231.498 117.799 232.086 117.799 232.73ZM116.511 232.814C116.539 232.245 116.446 231.769 116.231 231.386C116.016 231.003 115.722 230.719 115.349 230.532C114.976 230.345 114.57 230.252 114.131 230.252C113.431 230.252 112.843 230.471 112.367 230.91C111.891 231.339 111.634 231.974 111.597 232.814H116.511ZM126.535 232.73C126.535 233.001 126.517 233.234 126.479 233.43H120.333C120.361 234.307 120.609 234.965 121.075 235.404C121.551 235.843 122.13 236.062 122.811 236.062C123.427 236.062 123.941 235.908 124.351 235.6C124.771 235.283 125.028 234.863 125.121 234.34H126.479C126.386 234.872 126.176 235.348 125.849 235.768C125.532 236.188 125.117 236.515 124.603 236.748C124.09 236.981 123.511 237.098 122.867 237.098C122.13 237.098 121.477 236.939 120.907 236.622C120.338 236.305 119.89 235.852 119.563 235.264C119.246 234.667 119.087 233.967 119.087 233.164C119.087 232.361 119.246 231.661 119.563 231.064C119.89 230.467 120.338 230.009 120.907 229.692C121.477 229.375 122.13 229.216 122.867 229.216C123.614 229.216 124.263 229.375 124.813 229.692C125.373 230.009 125.798 230.434 126.087 230.966C126.386 231.498 126.535 232.086 126.535 232.73ZM125.247 232.814C125.275 232.245 125.182 231.769 124.967 231.386C124.753 231.003 124.459 230.719 124.085 230.532C123.712 230.345 123.306 230.252 122.867 230.252C122.167 230.252 121.579 230.471 121.103 230.91C120.627 231.339 120.371 231.974 120.333 232.814H125.247Z" fill="white"/>
<rect x="24" y="168" width="131" height="32" rx="8" fill="#222531" fill-opacity="0.6"/>
<path d="M57.934 186.732V185.668L63.002 179.06H64.374V185.626H65.83V186.732H64.374V189H63.086V186.732H57.934ZM63.17 180.614L59.278 185.626H63.17V180.614ZM68.1416 187.502V189H66.6016V187.502H68.1416ZM77.2972 181.216C77.9785 181.216 78.5852 181.375 79.1172 181.692C79.6492 182.009 80.0645 182.467 80.3632 183.064C80.6712 183.661 80.8252 184.361 80.8252 185.164C80.8252 185.967 80.6712 186.667 80.3632 187.264C80.0645 187.852 79.6492 188.305 79.1172 188.622C78.5852 188.939 77.9785 189.098 77.2972 189.098C76.5505 189.098 75.9159 188.911 75.3932 188.538C74.8799 188.155 74.5252 187.656 74.3292 187.04V189H73.0552V178.64H74.3292V183.274C74.5252 182.658 74.8799 182.163 75.3932 181.79C75.9159 181.407 76.5505 181.216 77.2972 181.216ZM76.9332 182.35C76.4385 182.35 75.9905 182.467 75.5892 182.7C75.1879 182.924 74.8752 183.251 74.6512 183.68C74.4272 184.109 74.3152 184.604 74.3152 185.164C74.3152 185.724 74.4272 186.219 74.6512 186.648C74.8752 187.068 75.1879 187.395 75.5892 187.628C75.9905 187.861 76.4385 187.978 76.9332 187.978C77.7265 187.978 78.3565 187.731 78.8232 187.236C79.2992 186.732 79.5372 186.041 79.5372 185.164C79.5372 184.287 79.2992 183.601 78.8232 183.106C78.3565 182.602 77.7265 182.35 76.9332 182.35ZM89.3208 181.314V189H88.0468V187.194C87.8508 187.819 87.5008 188.3 86.9968 188.636C86.5021 188.963 85.9235 189.126 85.2608 189.126C84.3741 189.126 83.6555 188.841 83.1048 188.272C82.5541 187.693 82.2788 186.867 82.2788 185.794V181.314H83.5528V185.668C83.5528 186.433 83.7488 187.026 84.1408 187.446C84.5328 187.857 85.0648 188.062 85.7368 188.062C86.4368 188.062 86.9968 187.838 87.4168 187.39C87.8368 186.933 88.0468 186.27 88.0468 185.402V181.314H89.3208ZM95.6038 181.216C96.2852 181.216 96.8918 181.375 97.4238 181.692C97.9558 182.009 98.3712 182.467 98.6698 183.064C98.9778 183.661 99.1318 184.361 99.1318 185.164C99.1318 185.967 98.9778 186.667 98.6698 187.264C98.3712 187.852 97.9558 188.305 97.4238 188.622C96.8918 188.939 96.2852 189.098 95.6038 189.098C94.8572 189.098 94.2225 188.911 93.6998 188.538C93.1865 188.155 92.8318 187.656 92.6358 187.04V189H91.3618V178.64H92.6358V183.274C92.8318 182.658 93.1865 182.163 93.6998 181.79C94.2225 181.407 94.8572 181.216 95.6038 181.216ZM95.2398 182.35C94.7452 182.35 94.2972 182.467 93.8958 182.7C93.4945 182.924 93.1818 183.251 92.9578 183.68C92.7338 184.109 92.6218 184.604 92.6218 185.164C92.6218 185.724 92.7338 186.219 92.9578 186.648C93.1818 187.068 93.4945 187.395 93.8958 187.628C94.2972 187.861 94.7452 187.978 95.2398 187.978C96.0332 187.978 96.6632 187.731 97.1298 187.236C97.6058 186.732 97.8438 186.041 97.8438 185.164C97.8438 184.287 97.6058 183.601 97.1298 183.106C96.6632 182.602 96.0332 182.35 95.2398 182.35ZM105.037 181.216C105.719 181.216 106.325 181.375 106.857 181.692C107.389 182.009 107.805 182.467 108.103 183.064C108.411 183.661 108.565 184.361 108.565 185.164C108.565 185.967 108.411 186.667 108.103 187.264C107.805 187.852 107.389 188.305 106.857 188.622C106.325 188.939 105.719 189.098 105.037 189.098C104.291 189.098 103.656 188.911 103.133 188.538C102.62 188.155 102.265 187.656 102.069 187.04V189H100.795V178.64H102.069V183.274C102.265 182.658 102.62 182.163 103.133 181.79C103.656 181.407 104.291 181.216 105.037 181.216ZM104.673 182.35C104.179 182.35 103.731 182.467 103.329 182.7C102.928 182.924 102.615 183.251 102.391 183.68C102.167 184.109 102.055 184.604 102.055 185.164C102.055 185.724 102.167 186.219 102.391 186.648C102.615 187.068 102.928 187.395 103.329 187.628C103.731 187.861 104.179 187.978 104.673 187.978C105.467 187.978 106.097 187.731 106.563 187.236C107.039 186.732 107.277 186.041 107.277 185.164C107.277 184.287 107.039 183.601 106.563 183.106C106.097 182.602 105.467 182.35 104.673 182.35ZM111.503 178.64V189H110.229V178.64H111.503ZM120.621 184.73C120.621 185.001 120.603 185.234 120.565 185.43H114.419C114.447 186.307 114.695 186.965 115.161 187.404C115.637 187.843 116.216 188.062 116.897 188.062C117.513 188.062 118.027 187.908 118.437 187.6C118.857 187.283 119.114 186.863 119.207 186.34H120.565C120.472 186.872 120.262 187.348 119.935 187.768C119.618 188.188 119.203 188.515 118.689 188.748C118.176 188.981 117.597 189.098 116.953 189.098C116.216 189.098 115.563 188.939 114.993 188.622C114.424 188.305 113.976 187.852 113.649 187.264C113.332 186.667 113.173 185.967 113.173 185.164C113.173 184.361 113.332 183.661 113.649 183.064C113.976 182.467 114.424 182.009 114.993 181.692C115.563 181.375 116.216 181.216 116.953 181.216C117.7 181.216 118.349 181.375 118.899 181.692C119.459 182.009 119.884 182.434 120.173 182.966C120.472 183.498 120.621 184.086 120.621 184.73ZM119.333 184.814C119.361 184.245 119.268 183.769 119.053 183.386C118.839 183.003 118.545 182.719 118.171 182.532C117.798 182.345 117.392 182.252 116.953 182.252C116.253 182.252 115.665 182.471 115.189 182.91C114.713 183.339 114.457 183.974 114.419 184.814H119.333Z" fill="white"/>
<rect x="24" y="264" width="131" height="32" rx="8" fill="#222531" fill-opacity="0.6"/>
<path d="M72.37 277.762C72.2953 277.174 72.0947 276.721 71.768 276.404C71.4507 276.077 71.0073 275.914 70.438 275.914C69.6447 275.914 69.0427 276.222 68.632 276.838C68.2307 277.454 68.03 278.429 68.03 279.764L68.044 280.282C68.184 279.722 68.506 279.279 69.01 278.952C69.514 278.616 70.1067 278.448 70.788 278.448C71.768 278.448 72.5333 278.742 73.084 279.33C73.644 279.918 73.924 280.739 73.924 281.794C73.924 282.41 73.8027 282.97 73.56 283.474C73.3173 283.969 72.944 284.365 72.44 284.664C71.9453 284.953 71.3293 285.098 70.592 285.098C69.1827 285.098 68.212 284.655 67.68 283.768C67.1573 282.881 66.896 281.677 66.896 280.156C66.896 278.401 67.176 277.085 67.736 276.208C68.3053 275.321 69.2293 274.878 70.508 274.878C71.4507 274.878 72.174 275.144 72.678 275.676C73.1913 276.208 73.4947 276.903 73.588 277.762H72.37ZM68.184 281.584C68.184 282.265 68.38 282.839 68.772 283.306C69.1733 283.763 69.7707 283.992 70.564 283.992C71.2173 283.992 71.74 283.801 72.132 283.418C72.524 283.026 72.72 282.48 72.72 281.78C72.72 281.024 72.524 280.45 72.132 280.058C71.74 279.657 71.1987 279.456 70.508 279.456C70.116 279.456 69.7427 279.535 69.388 279.694C69.0333 279.853 68.744 280.095 68.52 280.422C68.296 280.739 68.184 281.127 68.184 281.584ZM76.6553 283.502V285H75.1153V283.502H76.6553ZM82.1009 277.314L84.5929 283.362L86.9029 277.314H88.3169L83.7529 288.64H82.3109L83.9069 284.874L80.6729 277.314H82.1009ZM92.6349 277.216C93.3816 277.216 94.0116 277.403 94.5249 277.776C95.0476 278.149 95.4116 278.649 95.6169 279.274V277.314H96.8909V285H95.6169V283.04C95.4116 283.665 95.0476 284.165 94.5249 284.538C94.0116 284.911 93.3816 285.098 92.6349 285.098C91.9536 285.098 91.3469 284.939 90.8149 284.622C90.2829 284.305 89.8629 283.852 89.5549 283.264C89.2562 282.667 89.1069 281.967 89.1069 281.164C89.1069 280.361 89.2562 279.661 89.5549 279.064C89.8629 278.467 90.2829 278.009 90.8149 277.692C91.3469 277.375 91.9536 277.216 92.6349 277.216ZM92.9989 278.35C92.2149 278.35 91.5849 278.602 91.1089 279.106C90.6422 279.601 90.4089 280.287 90.4089 281.164C90.4089 282.041 90.6422 282.732 91.1089 283.236C91.5849 283.731 92.2149 283.978 92.9989 283.978C93.5029 283.978 93.9509 283.861 94.3429 283.628C94.7442 283.395 95.0569 283.068 95.2809 282.648C95.5049 282.219 95.6169 281.724 95.6169 281.164C95.6169 280.604 95.5049 280.109 95.2809 279.68C95.0569 279.251 94.7442 278.924 94.3429 278.7C93.9509 278.467 93.5029 278.35 92.9989 278.35ZM100.192 278.868C100.444 278.336 100.813 277.925 101.298 277.636C101.784 277.337 102.362 277.188 103.034 277.188V278.574H102.642C101.924 278.574 101.336 278.761 100.878 279.134C100.421 279.498 100.192 280.105 100.192 280.954V285H98.9185V277.314H100.192V278.868ZM107.442 277.216C108.188 277.216 108.818 277.403 109.332 277.776C109.854 278.149 110.218 278.649 110.424 279.274V274.64H111.698V285H110.424V283.04C110.218 283.665 109.854 284.165 109.332 284.538C108.818 284.911 108.188 285.098 107.442 285.098C106.76 285.098 106.154 284.939 105.622 284.622C105.09 284.305 104.67 283.852 104.362 283.264C104.063 282.667 103.914 281.967 103.914 281.164C103.914 280.361 104.063 279.661 104.362 279.064C104.67 278.467 105.09 278.009 105.622 277.692C106.154 277.375 106.76 277.216 107.442 277.216ZM107.806 278.35C107.022 278.35 106.392 278.602 105.916 279.106C105.449 279.601 105.216 280.287 105.216 281.164C105.216 282.041 105.449 282.732 105.916 283.236C106.392 283.731 107.022 283.978 107.806 283.978C108.31 283.978 108.758 283.861 109.15 283.628C109.551 283.395 109.864 283.068 110.088 282.648C110.312 282.219 110.424 281.724 110.424 281.164C110.424 280.604 110.312 280.109 110.088 279.68C109.864 279.251 109.551 278.924 109.15 278.7C108.758 278.467 108.31 278.35 107.806 278.35Z" fill="white"/>
<rect x="171" y="24" width="132" height="32" rx="8" fill="#222531" fill-opacity="0.6"/>
<path d="M224.664 36.054L220.926 45H219.582L223.376 36.18H218.196V35.074H224.664V36.054ZM227.042 43.502V45H225.502V43.502H227.042ZM239.026 40.73C239.026 41.0007 239.007 41.234 238.97 41.43H232.824C232.852 42.3073 233.099 42.9653 233.566 43.404C234.042 43.8427 234.62 44.062 235.302 44.062C235.918 44.062 236.431 43.908 236.842 43.6C237.262 43.2827 237.518 42.8627 237.612 42.34H238.97C238.876 42.872 238.666 43.348 238.34 43.768C238.022 44.188 237.607 44.5147 237.094 44.748C236.58 44.9813 236.002 45.098 235.358 45.098C234.62 45.098 233.967 44.9393 233.398 44.622C232.828 44.3047 232.38 43.852 232.054 43.264C231.736 42.6667 231.578 41.9667 231.578 41.164C231.578 40.3613 231.736 39.6613 232.054 39.064C232.38 38.4667 232.828 38.0093 233.398 37.692C233.967 37.3747 234.62 37.216 235.358 37.216C236.104 37.216 236.753 37.3747 237.304 37.692C237.864 38.0093 238.288 38.434 238.578 38.966C238.876 39.498 239.026 40.086 239.026 40.73ZM237.738 40.814C237.766 40.2447 237.672 39.7687 237.458 39.386C237.243 39.0033 236.949 38.7187 236.576 38.532C236.202 38.3453 235.796 38.252 235.358 38.252C234.658 38.252 234.07 38.4713 233.594 38.91C233.118 39.3393 232.861 39.974 232.824 40.814H237.738ZM245.116 45L243.114 42.06L241.308 45H239.894L242.414 41.038L239.88 37.314H241.336L243.282 40.17L245.06 37.314H246.474L243.968 41.178L246.572 45H245.116ZM247.536 35.06C247.536 34.8267 247.616 34.64 247.774 34.5C247.933 34.3507 248.143 34.276 248.404 34.276C248.666 34.276 248.876 34.3507 249.034 34.5C249.193 34.64 249.272 34.8267 249.272 35.06C249.272 35.2933 249.193 35.4847 249.034 35.634C248.876 35.774 248.666 35.844 248.404 35.844C248.143 35.844 247.933 35.774 247.774 35.634C247.616 35.4847 247.536 35.2933 247.536 35.06ZM249.034 37.314V45H247.76V37.314H249.034ZM254.751 43.88V45H253.799C253.015 45 252.427 44.8133 252.035 44.44C251.652 44.0667 251.461 43.4413 251.461 42.564V38.42H250.313V37.314H251.461V35.396H252.749V37.314H254.737V38.42H252.749V42.592C252.749 43.0867 252.837 43.4273 253.015 43.614C253.201 43.7913 253.519 43.88 253.967 43.88H254.751Z" fill="white"/>
<rect x="171" y="72" width="132" height="32" rx="8" fill="#222531" fill-opacity="0.6"/>
<path d="M209.994 85.454C209.994 84.9687 210.125 84.5253 210.386 84.124C210.647 83.7227 211.035 83.4053 211.548 83.172C212.061 82.9387 212.673 82.822 213.382 82.822C214.091 82.822 214.698 82.9387 215.202 83.172C215.715 83.4053 216.103 83.7227 216.364 84.124C216.625 84.5253 216.756 84.9687 216.756 85.454C216.756 86.0047 216.607 86.4807 216.308 86.882C216.009 87.2833 215.557 87.568 214.95 87.736C215.603 87.9133 216.112 88.2213 216.476 88.66C216.84 89.0987 217.022 89.64 217.022 90.284C217.022 91.2173 216.691 91.95 216.028 92.482C215.365 93.014 214.483 93.28 213.382 93.28C212.281 93.28 211.399 93.014 210.736 92.482C210.073 91.95 209.742 91.2173 209.742 90.284C209.742 89.64 209.919 89.0987 210.274 88.66C210.638 88.2213 211.147 87.9133 211.8 87.736C211.193 87.568 210.741 87.2833 210.442 86.882C210.143 86.4807 209.994 86.0047 209.994 85.454ZM211.254 85.636C211.254 86.196 211.445 86.63 211.828 86.938C212.211 87.2367 212.729 87.386 213.382 87.386C214.035 87.386 214.549 87.2367 214.922 86.938C215.305 86.63 215.496 86.196 215.496 85.636C215.496 85.076 215.305 84.6467 214.922 84.348C214.539 84.04 214.026 83.886 213.382 83.886C212.738 83.886 212.22 84.04 211.828 84.348C211.445 84.6467 211.254 85.076 211.254 85.636ZM210.988 90.214C210.988 90.8487 211.203 91.3433 211.632 91.698C212.061 92.0433 212.645 92.216 213.382 92.216C214.11 92.216 214.689 92.0387 215.118 91.684C215.547 91.3293 215.762 90.8393 215.762 90.214C215.762 89.5793 215.538 89.0987 215.09 88.772C214.642 88.4453 214.073 88.282 213.382 88.282C212.682 88.282 212.108 88.4453 211.66 88.772C211.212 89.0987 210.988 89.5793 210.988 90.214ZM219.71 91.502V93H218.17V91.502H219.71ZM231.694 88.73C231.694 89.0007 231.675 89.234 231.638 89.43H225.492C225.52 90.3073 225.767 90.9653 226.234 91.404C226.71 91.8427 227.288 92.062 227.97 92.062C228.586 92.062 229.099 91.908 229.51 91.6C229.93 91.2827 230.186 90.8627 230.28 90.34H231.638C231.544 90.872 231.334 91.348 231.008 91.768C230.69 92.188 230.275 92.5147 229.762 92.748C229.248 92.9813 228.67 93.098 228.026 93.098C227.288 93.098 226.635 92.9393 226.066 92.622C225.496 92.3047 225.048 91.852 224.722 91.264C224.404 90.6667 224.246 89.9667 224.246 89.164C224.246 88.3613 224.404 87.6613 224.722 87.064C225.048 86.4667 225.496 86.0093 226.066 85.692C226.635 85.3747 227.288 85.216 228.026 85.216C228.772 85.216 229.421 85.3747 229.972 85.692C230.532 86.0093 230.956 86.434 231.246 86.966C231.544 87.498 231.694 88.086 231.694 88.73ZM230.406 88.814C230.434 88.2447 230.34 87.7687 230.126 87.386C229.911 87.0033 229.617 86.7187 229.244 86.532C228.87 86.3453 228.464 86.252 228.026 86.252C227.326 86.252 226.738 86.4713 226.262 86.91C225.786 87.3393 225.529 87.974 225.492 88.814H230.406ZM237.406 85.188C238.302 85.188 239.025 85.4773 239.576 86.056C240.127 86.6253 240.402 87.4513 240.402 88.534V93H239.128V88.646C239.128 87.8807 238.932 87.2927 238.54 86.882C238.148 86.4713 237.616 86.266 236.944 86.266C236.244 86.266 235.684 86.4947 235.264 86.952C234.844 87.4 234.634 88.058 234.634 88.926V93H233.36V85.314H234.634V87.134C234.83 86.5087 235.175 86.028 235.67 85.692C236.174 85.356 236.753 85.188 237.406 85.188ZM245.506 85.216C246.253 85.216 246.883 85.4027 247.396 85.776C247.919 86.1493 248.283 86.6487 248.488 87.274V85.314H249.762V93H248.488V91.04C248.283 91.6653 247.919 92.1647 247.396 92.538C246.883 92.9113 246.253 93.098 245.506 93.098C244.825 93.098 244.218 92.9393 243.686 92.622C243.154 92.3047 242.734 91.852 242.426 91.264C242.127 90.6667 241.978 89.9667 241.978 89.164C241.978 88.3613 242.127 87.6613 242.426 87.064C242.734 86.4667 243.154 86.0093 243.686 85.692C244.218 85.3747 244.825 85.216 245.506 85.216ZM245.87 86.35C245.086 86.35 244.456 86.602 243.98 87.106C243.513 87.6007 243.28 88.2867 243.28 89.164C243.28 90.0413 243.513 90.732 243.98 91.236C244.456 91.7307 245.086 91.978 245.87 91.978C246.374 91.978 246.822 91.8613 247.214 91.628C247.615 91.3947 247.928 91.068 248.152 90.648C248.376 90.2187 248.488 89.724 248.488 89.164C248.488 88.604 248.376 88.1093 248.152 87.68C247.928 87.2507 247.615 86.924 247.214 86.7C246.822 86.4667 246.374 86.35 245.87 86.35ZM255.192 85.216C256.172 85.216 256.984 85.4773 257.628 86C258.272 86.5227 258.668 87.2227 258.818 88.1H257.474C257.38 87.5493 257.124 87.12 256.704 86.812C256.293 86.4947 255.78 86.336 255.164 86.336C254.716 86.336 254.305 86.4387 253.932 86.644C253.568 86.8493 253.274 87.1667 253.05 87.596C252.826 88.016 252.714 88.5387 252.714 89.164C252.714 89.7893 252.826 90.3167 253.05 90.746C253.274 91.166 253.568 91.4787 253.932 91.684C254.305 91.8893 254.716 91.992 255.164 91.992C255.78 91.992 256.293 91.8333 256.704 91.516C257.124 91.1987 257.38 90.7647 257.474 90.214H258.818C258.668 91.1007 258.272 91.8053 257.628 92.328C256.984 92.8413 256.172 93.098 255.192 93.098C254.454 93.098 253.801 92.9393 253.232 92.622C252.662 92.3047 252.214 91.852 251.888 91.264C251.57 90.6667 251.412 89.9667 251.412 89.164C251.412 88.3613 251.57 87.6613 251.888 87.064C252.214 86.4667 252.662 86.0093 253.232 85.692C253.801 85.3747 254.454 85.216 255.192 85.216ZM264.153 91.88V93H263.201C262.417 93 261.829 92.8133 261.437 92.44C261.054 92.0667 260.863 91.4413 260.863 90.564V86.42H259.715V85.314H260.863V83.396H262.151V85.314H264.139V86.42H262.151V90.592C262.151 91.0867 262.24 91.4273 262.417 91.614C262.604 91.7913 262.921 91.88 263.369 91.88H264.153Z" fill="white"/>
<rect x="171" y="120" width="132" height="32" rx="8" fill="#222531" fill-opacity="0.6"/>
<path d="M212.74 138.228C212.824 138.816 213.029 139.269 213.356 139.586C213.683 139.903 214.131 140.062 214.7 140.062C215.484 140.062 216.077 139.759 216.478 139.152C216.879 138.545 217.08 137.584 217.08 136.268C217.08 136.016 217.075 135.825 217.066 135.694C216.935 136.254 216.618 136.702 216.114 137.038C215.61 137.374 215.017 137.542 214.336 137.542C213.356 137.542 212.586 137.248 212.026 136.66C211.466 136.072 211.186 135.251 211.186 134.196C211.186 133.58 211.307 133.02 211.55 132.516C211.793 132.012 212.161 131.615 212.656 131.326C213.16 131.027 213.781 130.878 214.518 130.878C215.937 130.878 216.907 131.317 217.43 132.194C217.962 133.062 218.228 134.257 218.228 135.778C218.228 137.514 217.957 138.839 217.416 139.754C216.875 140.659 215.969 141.112 214.7 141.112C213.757 141.112 213.015 140.846 212.474 140.314C211.942 139.773 211.629 139.077 211.536 138.228H212.74ZM216.94 134.392C216.94 133.72 216.739 133.151 216.338 132.684C215.946 132.217 215.353 131.984 214.56 131.984C213.907 131.984 213.384 132.18 212.992 132.572C212.6 132.964 212.404 133.51 212.404 134.21C212.404 134.957 212.6 135.531 212.992 135.932C213.384 136.333 213.921 136.534 214.602 136.534C214.994 136.534 215.367 136.455 215.722 136.296C216.086 136.137 216.38 135.895 216.604 135.568C216.828 135.241 216.94 134.849 216.94 134.392ZM220.978 139.502V141H219.438V139.502H220.978ZM229.041 133.216C229.788 133.216 230.418 133.403 230.931 133.776C231.454 134.149 231.818 134.649 232.023 135.274V130.64H233.297V141H232.023V139.04C231.818 139.665 231.454 140.165 230.931 140.538C230.418 140.911 229.788 141.098 229.041 141.098C228.36 141.098 227.753 140.939 227.221 140.622C226.689 140.305 226.269 139.852 225.961 139.264C225.662 138.667 225.513 137.967 225.513 137.164C225.513 136.361 225.662 135.661 225.961 135.064C226.269 134.467 226.689 134.009 227.221 133.692C227.753 133.375 228.36 133.216 229.041 133.216ZM229.405 134.35C228.621 134.35 227.991 134.602 227.515 135.106C227.048 135.601 226.815 136.287 226.815 137.164C226.815 138.041 227.048 138.732 227.515 139.236C227.991 139.731 228.621 139.978 229.405 139.978C229.909 139.978 230.357 139.861 230.749 139.628C231.15 139.395 231.463 139.068 231.687 138.648C231.911 138.219 232.023 137.724 232.023 137.164C232.023 136.604 231.911 136.109 231.687 135.68C231.463 135.251 231.15 134.924 230.749 134.7C230.357 134.467 229.909 134.35 229.405 134.35ZM236.599 134.868C236.851 134.336 237.219 133.925 237.705 133.636C238.19 133.337 238.769 133.188 239.441 133.188V134.574H239.049C238.33 134.574 237.742 134.761 237.285 135.134C236.827 135.498 236.599 136.105 236.599 136.954V141H235.325V133.314H236.599V134.868ZM247.53 133.314V141H246.256V139.194C246.06 139.819 245.71 140.3 245.206 140.636C244.711 140.963 244.132 141.126 243.47 141.126C242.583 141.126 241.864 140.841 241.314 140.272C240.763 139.693 240.488 138.867 240.488 137.794V133.314H241.762V137.668C241.762 138.433 241.958 139.026 242.35 139.446C242.742 139.857 243.274 140.062 243.946 140.062C244.646 140.062 245.206 139.838 245.626 139.39C246.046 138.933 246.256 138.27 246.256 137.402V133.314H247.53ZM259.021 133.188C259.917 133.188 260.635 133.477 261.177 134.056C261.727 134.625 262.003 135.451 262.003 136.534V141H260.729V136.646C260.729 135.89 260.542 135.311 260.169 134.91C259.805 134.509 259.301 134.308 258.657 134.308C257.985 134.308 257.443 134.532 257.033 134.98C256.631 135.419 256.431 136.067 256.431 136.926V141H255.157V136.646C255.157 135.89 254.97 135.311 254.597 134.91C254.223 134.509 253.719 134.308 253.085 134.308C252.403 134.308 251.857 134.532 251.447 134.98C251.045 135.419 250.845 136.067 250.845 136.926V141H249.571V133.314H250.845V135.064C251.031 134.457 251.363 133.995 251.839 133.678C252.324 133.351 252.879 133.188 253.505 133.188C254.158 133.188 254.723 133.356 255.199 133.692C255.684 134.019 256.029 134.504 256.235 135.148C256.449 134.523 256.809 134.042 257.313 133.706C257.817 133.361 258.386 133.188 259.021 133.188Z" fill="white"/>
<rect x="171" y="216" width="132" height="32" rx="8" fill="#222531" fill-opacity="0.6"/>
<path d="M208.182 228.32V227.13H211.01V237H209.666V228.32H208.182ZM212.202 228.32V227.13H215.03V237H213.686V228.32H212.202ZM217.999 235.502V237H216.459V235.502H217.999ZM226.581 235.88V237H225.629C224.845 237 224.257 236.813 223.865 236.44C223.482 236.067 223.291 235.441 223.291 234.564V230.42H222.143V229.314H223.291V227.396H224.579V229.314H226.567V230.42H224.579V234.592C224.579 235.087 224.667 235.427 224.845 235.614C225.031 235.791 225.349 235.88 225.797 235.88H226.581ZM231.285 229.216C232.032 229.216 232.662 229.403 233.175 229.776C233.698 230.149 234.062 230.649 234.267 231.274V229.314H235.541V237H234.267V235.04C234.062 235.665 233.698 236.165 233.175 236.538C232.662 236.911 232.032 237.098 231.285 237.098C230.604 237.098 229.997 236.939 229.465 236.622C228.933 236.305 228.513 235.852 228.205 235.264C227.907 234.667 227.757 233.967 227.757 233.164C227.757 232.361 227.907 231.661 228.205 231.064C228.513 230.467 228.933 230.009 229.465 229.692C229.997 229.375 230.604 229.216 231.285 229.216ZM231.649 230.35C230.865 230.35 230.235 230.602 229.759 231.106C229.293 231.601 229.059 232.287 229.059 233.164C229.059 234.041 229.293 234.732 229.759 235.236C230.235 235.731 230.865 235.978 231.649 235.978C232.153 235.978 232.601 235.861 232.993 235.628C233.395 235.395 233.707 235.068 233.931 234.648C234.155 234.219 234.267 233.724 234.267 233.164C234.267 232.604 234.155 232.109 233.931 231.68C233.707 231.251 233.395 230.924 232.993 230.7C232.601 230.467 232.153 230.35 231.649 230.35ZM238.843 230.868C239.095 230.336 239.464 229.925 239.949 229.636C240.434 229.337 241.013 229.188 241.685 229.188V230.574H241.293C240.574 230.574 239.986 230.761 239.529 231.134C239.072 231.498 238.843 232.105 238.843 232.954V237H237.569V229.314H238.843V230.868ZM246.092 229.216C246.839 229.216 247.469 229.403 247.982 229.776C248.505 230.149 248.869 230.649 249.074 231.274V229.314H250.348V237.126C250.348 237.835 250.199 238.465 249.9 239.016C249.601 239.567 249.181 239.996 248.64 240.304C248.099 240.612 247.469 240.766 246.75 240.766C245.714 240.766 244.869 240.514 244.216 240.01C243.563 239.515 243.147 238.843 242.97 237.994H244.23C244.379 238.507 244.659 238.909 245.07 239.198C245.49 239.497 246.027 239.646 246.68 239.646C247.371 239.646 247.94 239.422 248.388 238.974C248.845 238.535 249.074 237.919 249.074 237.126V235.04C248.869 235.665 248.505 236.165 247.982 236.538C247.469 236.911 246.839 237.098 246.092 237.098C245.411 237.098 244.804 236.939 244.272 236.622C243.74 236.305 243.32 235.852 243.012 235.264C242.713 234.667 242.564 233.967 242.564 233.164C242.564 232.361 242.713 231.661 243.012 231.064C243.32 230.467 243.74 230.009 244.272 229.692C244.804 229.375 245.411 229.216 246.092 229.216ZM246.456 230.35C245.672 230.35 245.042 230.602 244.566 231.106C244.099 231.601 243.866 232.287 243.866 233.164C243.866 234.041 244.099 234.732 244.566 235.236C245.042 235.731 245.672 235.978 246.456 235.978C246.96 235.978 247.408 235.861 247.8 235.628C248.201 235.395 248.514 235.068 248.738 234.648C248.962 234.219 249.074 233.724 249.074 233.164C249.074 232.604 248.962 232.109 248.738 231.68C248.514 231.251 248.201 230.924 247.8 230.7C247.408 230.467 246.96 230.35 246.456 230.35ZM259.446 232.73C259.446 233.001 259.427 233.234 259.39 233.43H253.244C253.272 234.307 253.519 234.965 253.986 235.404C254.462 235.843 255.04 236.062 255.722 236.062C256.338 236.062 256.851 235.908 257.262 235.6C257.682 235.283 257.938 234.863 258.032 234.34H259.39C259.296 234.872 259.086 235.348 258.76 235.768C258.442 236.188 258.027 236.515 257.514 236.748C257 236.981 256.422 237.098 255.778 237.098C255.04 237.098 254.387 236.939 253.818 236.622C253.248 236.305 252.8 235.852 252.474 235.264C252.156 234.667 251.998 233.967 251.998 233.164C251.998 232.361 252.156 231.661 252.474 231.064C252.8 230.467 253.248 230.009 253.818 229.692C254.387 229.375 255.04 229.216 255.778 229.216C256.524 229.216 257.173 229.375 257.724 229.692C258.284 230.009 258.708 230.434 258.998 230.966C259.296 231.498 259.446 232.086 259.446 232.73ZM258.158 232.814C258.186 232.245 258.092 231.769 257.878 231.386C257.663 231.003 257.369 230.719 256.996 230.532C256.622 230.345 256.216 230.252 255.778 230.252C255.078 230.252 254.49 230.471 254.014 230.91C253.538 231.339 253.281 231.974 253.244 232.814H258.158ZM264.78 235.88V237H263.828C263.044 237 262.456 236.813 262.064 236.44C261.681 236.067 261.49 235.441 261.49 234.564V230.42H260.342V229.314H261.49V227.396H262.778V229.314H264.766V230.42H262.778V234.592C262.778 235.087 262.867 235.427 263.044 235.614C263.231 235.791 263.548 235.88 263.996 235.88H264.78Z" fill="white"/>
<rect x="171" y="168" width="132" height="32" rx="8" fill="#222531" fill-opacity="0.6"/>
<path d="M197.682 180.32V179.13H200.51V189H199.166V180.32H197.682ZM202.318 184.002C202.318 185.589 202.579 186.825 203.102 187.712C203.624 188.599 204.53 189.042 205.818 189.042C207.106 189.042 208.011 188.599 208.534 187.712C209.066 186.825 209.332 185.589 209.332 184.002C209.332 182.434 209.066 181.207 208.534 180.32C208.011 179.433 207.106 178.99 205.818 178.99C204.53 178.99 203.624 179.433 203.102 180.32C202.579 181.197 202.318 182.425 202.318 184.002ZM208.072 184.002C208.072 184.814 208.011 185.495 207.89 186.046C207.778 186.587 207.558 187.021 207.232 187.348C206.905 187.675 206.434 187.838 205.818 187.838C205.211 187.838 204.744 187.675 204.418 187.348C204.091 187.021 203.867 186.587 203.746 186.046C203.634 185.495 203.578 184.814 203.578 184.002C203.578 183.199 203.634 182.527 203.746 181.986C203.867 181.445 204.091 181.015 204.418 180.698C204.744 180.371 205.211 180.208 205.818 180.208C206.434 180.208 206.905 180.371 207.232 180.698C207.558 181.015 207.778 181.445 207.89 181.986C208.011 182.527 208.072 183.199 208.072 184.002ZM212.079 187.502V189H210.539V187.502H212.079ZM220.395 179.494C219.713 179.485 219.237 179.601 218.967 179.844C218.705 180.087 218.575 180.507 218.575 181.104V181.314H220.395V182.434H218.575V189H217.301V182.434H216.195V181.314H217.301V181.006C217.301 179.167 218.332 178.29 220.395 178.374V179.494ZM223.052 182.868C223.304 182.336 223.673 181.925 224.158 181.636C224.643 181.337 225.222 181.188 225.894 181.188V182.574H225.502C224.783 182.574 224.195 182.761 223.738 183.134C223.281 183.498 223.052 184.105 223.052 184.954V189H221.778V181.314H223.052V182.868ZM234.221 184.73C234.221 185.001 234.202 185.234 234.165 185.43H228.019C228.047 186.307 228.294 186.965 228.761 187.404C229.237 187.843 229.816 188.062 230.497 188.062C231.113 188.062 231.626 187.908 232.037 187.6C232.457 187.283 232.714 186.863 232.807 186.34H234.165C234.072 186.872 233.862 187.348 233.535 187.768C233.218 188.188 232.802 188.515 232.289 188.748C231.776 188.981 231.197 189.098 230.553 189.098C229.816 189.098 229.162 188.939 228.593 188.622C228.024 188.305 227.576 187.852 227.249 187.264C226.932 186.667 226.773 185.967 226.773 185.164C226.773 184.361 226.932 183.661 227.249 183.064C227.576 182.467 228.024 182.009 228.593 181.692C229.162 181.375 229.816 181.216 230.553 181.216C231.3 181.216 231.948 181.375 232.499 181.692C233.059 182.009 233.484 182.434 233.773 182.966C234.072 183.498 234.221 184.086 234.221 184.73ZM232.933 184.814C232.961 184.245 232.868 183.769 232.653 183.386C232.438 183.003 232.144 182.719 231.771 182.532C231.398 182.345 230.992 182.252 230.553 182.252C229.853 182.252 229.265 182.471 228.789 182.91C228.313 183.339 228.056 183.974 228.019 184.814H232.933ZM239.121 181.244C239.831 181.244 240.433 181.417 240.927 181.762C241.431 182.098 241.795 182.555 242.019 183.134V181.314H243.293V192.64H242.019V187.124C241.786 187.731 241.417 188.211 240.913 188.566C240.419 188.921 239.821 189.098 239.121 189.098C238.44 189.098 237.824 188.939 237.273 188.622C236.723 188.295 236.289 187.838 235.971 187.25C235.663 186.653 235.509 185.962 235.509 185.178C235.509 184.394 235.663 183.708 235.971 183.12C236.289 182.523 236.723 182.061 237.273 181.734C237.824 181.407 238.44 181.244 239.121 181.244ZM239.401 182.35C238.636 182.35 238.011 182.602 237.525 183.106C237.049 183.601 236.811 184.291 236.811 185.178C236.811 186.065 237.049 186.755 237.525 187.25C238.001 187.735 238.627 187.978 239.401 187.978C239.887 187.978 240.325 187.866 240.717 187.642C241.119 187.409 241.436 187.082 241.669 186.662C241.903 186.233 242.019 185.733 242.019 185.164C242.019 184.595 241.903 184.1 241.669 183.68C241.436 183.251 241.119 182.924 240.717 182.7C240.325 182.467 239.887 182.35 239.401 182.35ZM252.153 181.314V189H250.879V187.194C250.683 187.819 250.333 188.3 249.829 188.636C249.334 188.963 248.755 189.126 248.093 189.126C247.206 189.126 246.487 188.841 245.937 188.272C245.386 187.693 245.111 186.867 245.111 185.794V181.314H246.385V185.668C246.385 186.433 246.581 187.026 246.973 187.446C247.365 187.857 247.897 188.062 248.569 188.062C249.269 188.062 249.829 187.838 250.249 187.39C250.669 186.933 250.879 186.27 250.879 185.402V181.314H252.153ZM261.264 184.73C261.264 185.001 261.245 185.234 261.208 185.43H255.062C255.09 186.307 255.337 186.965 255.804 187.404C256.28 187.843 256.859 188.062 257.54 188.062C258.156 188.062 258.669 187.908 259.08 187.6C259.5 187.283 259.757 186.863 259.85 186.34H261.208C261.115 186.872 260.905 187.348 260.578 187.768C260.261 188.188 259.845 188.515 259.332 188.748C258.819 188.981 258.24 189.098 257.596 189.098C256.859 189.098 256.205 188.939 255.636 188.622C255.067 188.305 254.619 187.852 254.292 187.264C253.975 186.667 253.816 185.967 253.816 185.164C253.816 184.361 253.975 183.661 254.292 183.064C254.619 182.467 255.067 182.009 255.636 181.692C256.205 181.375 256.859 181.216 257.596 181.216C258.343 181.216 258.991 181.375 259.542 181.692C260.102 182.009 260.527 182.434 260.816 182.966C261.115 183.498 261.264 184.086 261.264 184.73ZM259.976 184.814C260.004 184.245 259.911 183.769 259.696 183.386C259.481 183.003 259.187 182.719 258.814 182.532C258.441 182.345 258.035 182.252 257.596 182.252C256.896 182.252 256.308 182.471 255.832 182.91C255.356 183.339 255.099 183.974 255.062 184.814H259.976ZM266.976 181.188C267.872 181.188 268.596 181.477 269.146 182.056C269.697 182.625 269.972 183.451 269.972 184.534V189H268.698V184.646C268.698 183.881 268.502 183.293 268.11 182.882C267.718 182.471 267.186 182.266 266.514 182.266C265.814 182.266 265.254 182.495 264.834 182.952C264.414 183.4 264.204 184.058 264.204 184.926V189H262.93V181.314H264.204V183.134C264.4 182.509 264.746 182.028 265.24 181.692C265.744 181.356 266.323 181.188 266.976 181.188ZM275.594 187.88V189H274.642C273.858 189 273.27 188.813 272.878 188.44C272.496 188.067 272.304 187.441 272.304 186.564V182.42H271.156V181.314H272.304V179.396H273.592V181.314H275.58V182.42H273.592V186.592C273.592 187.087 273.681 187.427 273.858 187.614C274.045 187.791 274.362 187.88 274.81 187.88H275.594Z" fill="white"/>
<rect x="171" y="264" width="132" height="32" rx="8" fill="#222531" fill-opacity="0.6"/>
<path d="M206.682 276.32V275.13H209.51V285H208.166V276.32H206.682ZM211.108 284.02C212.694 282.956 213.964 281.901 214.916 280.856C215.868 279.801 216.344 278.821 216.344 277.916C216.344 277.356 216.199 276.908 215.91 276.572C215.63 276.227 215.172 276.054 214.538 276.054C213.884 276.054 213.39 276.264 213.054 276.684C212.718 277.095 212.531 277.664 212.494 278.392H211.234C211.299 277.291 211.64 276.446 212.256 275.858C212.872 275.261 213.665 274.962 214.636 274.962C215.56 274.962 216.292 275.209 216.834 275.704C217.375 276.199 217.646 276.899 217.646 277.804C217.646 278.551 217.403 279.311 216.918 280.086C216.442 280.851 215.84 281.565 215.112 282.228C214.393 282.881 213.651 283.437 212.886 283.894H217.898V284.944H211.108V284.02ZM220.423 283.502V285H218.883V283.502H220.423ZM228.822 277.216C229.56 277.216 230.218 277.375 230.796 277.692C231.384 278.009 231.842 278.467 232.168 279.064C232.504 279.661 232.672 280.361 232.672 281.164C232.672 281.967 232.504 282.667 232.168 283.264C231.842 283.852 231.384 284.305 230.796 284.622C230.218 284.939 229.56 285.098 228.822 285.098C228.085 285.098 227.422 284.939 226.834 284.622C226.256 284.305 225.798 283.852 225.462 283.264C225.126 282.667 224.958 281.967 224.958 281.164C224.958 280.361 225.126 279.661 225.462 279.064C225.798 278.467 226.256 278.009 226.834 277.692C227.422 277.375 228.085 277.216 228.822 277.216ZM228.822 278.336C228.365 278.336 227.94 278.439 227.548 278.644C227.166 278.849 226.853 279.167 226.61 279.596C226.377 280.016 226.26 280.539 226.26 281.164C226.26 281.78 226.377 282.303 226.61 282.732C226.853 283.152 227.166 283.465 227.548 283.67C227.94 283.875 228.365 283.978 228.822 283.978C229.28 283.978 229.7 283.875 230.082 283.67C230.474 283.465 230.787 283.152 231.02 282.732C231.263 282.303 231.384 281.78 231.384 281.164C231.384 280.539 231.263 280.016 231.02 279.596C230.787 279.167 230.474 278.849 230.082 278.644C229.7 278.439 229.28 278.336 228.822 278.336ZM235.607 278.868C235.859 278.336 236.227 277.925 236.713 277.636C237.198 277.337 237.777 277.188 238.449 277.188V278.574H238.057C237.338 278.574 236.75 278.761 236.293 279.134C235.835 279.498 235.607 280.105 235.607 280.954V285H234.333V277.314H235.607V278.868ZM242.856 277.216C243.602 277.216 244.232 277.403 244.746 277.776C245.268 278.149 245.632 278.649 245.838 279.274V277.314H247.112V285.126C247.112 285.835 246.962 286.465 246.664 287.016C246.365 287.567 245.945 287.996 245.404 288.304C244.862 288.612 244.232 288.766 243.514 288.766C242.478 288.766 241.633 288.514 240.98 288.01C240.326 287.515 239.911 286.843 239.734 285.994H240.994C241.143 286.507 241.423 286.909 241.834 287.198C242.254 287.497 242.79 287.646 243.444 287.646C244.134 287.646 244.704 287.422 245.152 286.974C245.609 286.535 245.838 285.919 245.838 285.126V283.04C245.632 283.665 245.268 284.165 244.746 284.538C244.232 284.911 243.602 285.098 242.856 285.098C242.174 285.098 241.568 284.939 241.036 284.622C240.504 284.305 240.084 283.852 239.776 283.264C239.477 282.667 239.328 281.967 239.328 281.164C239.328 280.361 239.477 279.661 239.776 279.064C240.084 278.467 240.504 278.009 241.036 277.692C241.568 277.375 242.174 277.216 242.856 277.216ZM243.22 278.35C242.436 278.35 241.806 278.602 241.33 279.106C240.863 279.601 240.63 280.287 240.63 281.164C240.63 282.041 240.863 282.732 241.33 283.236C241.806 283.731 242.436 283.978 243.22 283.978C243.724 283.978 244.172 283.861 244.564 283.628C244.965 283.395 245.278 283.068 245.502 282.648C245.726 282.219 245.838 281.724 245.838 281.164C245.838 280.604 245.726 280.109 245.502 279.68C245.278 279.251 244.965 278.924 244.564 278.7C244.172 278.467 243.724 278.35 243.22 278.35ZM252.289 277.216C253.036 277.216 253.666 277.403 254.179 277.776C254.702 278.149 255.066 278.649 255.271 279.274V277.314H256.545V285H255.271V283.04C255.066 283.665 254.702 284.165 254.179 284.538C253.666 284.911 253.036 285.098 252.289 285.098C251.608 285.098 251.001 284.939 250.469 284.622C249.937 284.305 249.517 283.852 249.209 283.264C248.911 282.667 248.761 281.967 248.761 281.164C248.761 280.361 248.911 279.661 249.209 279.064C249.517 278.467 249.937 278.009 250.469 277.692C251.001 277.375 251.608 277.216 252.289 277.216ZM252.653 278.35C251.869 278.35 251.239 278.602 250.763 279.106C250.297 279.601 250.063 280.287 250.063 281.164C250.063 282.041 250.297 282.732 250.763 283.236C251.239 283.731 251.869 283.978 252.653 283.978C253.157 283.978 253.605 283.861 253.997 283.628C254.399 283.395 254.711 283.068 254.935 282.648C255.159 282.219 255.271 281.724 255.271 281.164C255.271 280.604 255.159 280.109 254.935 279.68C254.711 279.251 254.399 278.924 253.997 278.7C253.605 278.467 253.157 278.35 252.653 278.35ZM262.619 277.188C263.515 277.188 264.238 277.477 264.789 278.056C265.339 278.625 265.615 279.451 265.615 280.534V285H264.341V280.646C264.341 279.881 264.145 279.293 263.753 278.882C263.361 278.471 262.829 278.266 262.157 278.266C261.457 278.266 260.897 278.495 260.477 278.952C260.057 279.4 259.847 280.058 259.847 280.926V285H258.573V277.314H259.847V279.134C260.043 278.509 260.388 278.028 260.883 277.692C261.387 277.356 261.965 277.188 262.619 277.188Z" fill="white"/>
<g filter="url(#filter0_b_3754_20072)">
<rect width="327" height="320" rx="8" fill="#222531" fill-opacity="0.6"/>
<rect x="0.5" y="0.5" width="326" height="319" rx="7.5" stroke="white" stroke-opacity="0.06"/>
</g>
<defs>
<filter id="filter0_b_3754_20072" x="-24" y="-24" width="375" height="368" filterUnits="userSpaceOnUse" color-interpolation-filters="sRGB">
<feFlood flood-opacity="0" result="BackgroundImageFix"/>
<feGaussianBlur in="BackgroundImageFix" stdDeviation="12"/>
<feComposite in2="SourceAlpha" operator="in" result="effect1_backgroundBlur_3754_20072"/>
<feBlend mode="normal" in="SourceGraphic" in2="effect1_backgroundBlur_3754_20072" result="shape"/>
</filter>
</defs>
</svg>
