<svg width="213" height="59" viewBox="0 0 213 59" fill="none" xmlns="http://www.w3.org/2000/svg">
<path fill-rule="evenodd" clip-rule="evenodd" d="M153.605 17.4937C151.969 13.6979 149.461 10.7273 146.08 8.58182C142.754 6.38135 138.829 5.28112 134.303 5.28112C130.05 5.28112 126.234 6.27133 122.853 8.25175C119.473 10.2322 116.801 13.0653 114.838 16.7511C112.875 20.3818 111.894 24.6177 111.894 29.4587C111.894 34.2998 112.875 38.5632 114.838 42.249C116.801 45.9347 119.473 48.7678 122.853 50.7483C126.234 52.7287 130.05 53.7189 134.303 53.7189C138.283 53.7189 141.855 52.8662 145.017 51.1608C148.234 49.4005 150.797 46.9249 152.705 43.7343C154.668 40.4886 155.786 36.7203 156.058 32.4294H132.013V27.7259H162.11V31.9343C161.838 36.9953 160.475 41.5888 158.021 45.7147C155.568 49.7855 152.269 53.0037 148.125 55.3692C144.036 57.7347 139.428 58.9175 134.303 58.9175C129.014 58.9175 124.216 57.6797 119.909 55.2042C115.601 52.6737 112.194 49.1804 109.686 44.7245C107.232 40.2135 106.005 35.1249 106.005 29.4587C106.005 23.7925 107.232 18.7315 109.686 14.2755C112.194 9.76457 115.601 6.27133 119.909 3.7958C124.216 1.26527 129.014 0 134.303 0C140.41 0 145.753 1.54033 150.333 4.62098C154.913 7.70163 158.239 11.9925 160.311 17.4937H153.605ZM33.2052 4.12587C28.6797 1.81538 23.2545 0.660136 16.9297 0.660136H0V35H5.72503V5.44615H16.9297C24.8903 5.44615 30.9424 7.59161 35.0863 11.8825C39.2846 16.1184 41.3838 22.0322 41.3838 29.6238C41.3838 37.1604 39.2846 43.0466 35.0863 47.2825C30.9424 51.4634 24.8903 53.5538 16.9297 53.5538H6V58.3399H16.9297C23.2545 58.3399 28.6797 57.2121 33.2052 54.9566C37.7307 52.6462 41.193 49.3455 43.592 45.0545C45.9911 40.7086 47.1906 35.565 47.1906 29.6238C47.1906 23.6275 45.9911 18.4564 43.592 14.1105C41.193 9.76457 37.7307 6.43636 33.2052 4.12587ZM97.9843 38.0406C98.0934 36.9953 98.1479 35.4825 98.1479 33.5021C98.1479 29.6513 97.2755 26.158 95.5307 23.0224C93.8405 19.8317 91.3869 17.3012 88.17 15.4308C85.0076 13.5604 81.2999 12.6252 77.0471 12.6252C72.7942 12.6252 69.0048 13.5604 65.6788 15.4308C62.3528 17.3012 59.7629 19.9967 57.9091 23.5175C56.0553 27.0382 55.1284 31.1366 55.1284 35.8126C55.1284 40.4886 56.0553 44.5869 57.9091 48.1077C59.8174 51.5734 62.4346 54.269 65.7606 56.1944C69.0865 58.0648 72.8487 59 77.0471 59C82.445 59 86.9159 57.6247 90.46 54.8741C94.0586 52.0685 96.4031 48.4653 97.4936 44.0643H91.4414C90.6236 47.145 88.9333 49.593 86.3707 51.4084C83.8626 53.2238 80.7547 54.1315 77.0471 54.1315C74.2118 54.1315 71.5947 53.5263 69.1956 52.3161C66.7965 51.0508 64.8609 49.2079 63.3888 46.7874C61.9166 44.3669 61.0988 41.4513 60.9352 38.0406H97.9843ZM90.2964 24.7552C91.7141 27.1207 92.3956 29.9813 92.3411 33.3371H60.9352C61.2623 28.331 62.9253 24.4527 65.9241 21.7021C68.923 18.9515 72.5488 17.5762 76.8017 17.5762C79.637 17.5762 82.2541 18.1814 84.6532 19.3916C87.0522 20.6019 88.9333 22.3897 90.2964 24.7552ZM212.836 38.0406C212.945 36.9953 213 35.4825 213 33.5021C213 29.6513 212.128 26.158 210.383 23.0224C208.693 19.8317 206.239 17.3012 203.022 15.4308C199.86 13.5604 196.152 12.6252 191.899 12.6252C187.646 12.6252 183.857 13.5604 180.531 15.4308C177.205 17.3012 174.615 19.9967 172.761 23.5175C170.907 27.0382 169.98 31.1366 169.98 35.8126C169.98 40.4886 170.907 44.5869 172.761 48.1077C174.67 51.5734 177.287 54.269 180.613 56.1944C183.939 58.0648 187.701 59 191.899 59C197.297 59 201.768 57.6247 205.312 54.8741C208.911 52.0685 211.255 48.4653 212.346 44.0643H206.294C205.476 47.145 203.785 49.593 201.223 51.4084C198.715 53.2238 195.607 54.1315 191.899 54.1315C189.064 54.1315 186.447 53.5263 184.048 52.3161C181.649 51.0508 179.713 49.2079 178.241 46.7874C176.769 44.3669 175.951 41.4513 175.787 38.0406H212.836ZM205.149 24.7552C206.566 27.1207 207.248 29.9813 207.193 33.3371H175.787C176.114 28.331 177.777 24.4527 180.776 21.7021C183.775 18.9515 187.401 17.5762 191.654 17.5762C194.489 17.5762 197.106 18.1814 199.505 19.3916C201.904 20.6019 203.785 22.3897 205.149 24.7552Z" fill="url(#paint0_linear_3763_20606)"/>
<defs>
<linearGradient id="paint0_linear_3763_20606" x1="0" y1="0" x2="216.317" y2="17.14" gradientUnits="userSpaceOnUse">
<stop stop-color="#A9CDFF"/>
<stop offset="0.21875" stop-color="#72F6D1"/>
<stop offset="0.557292" stop-color="#A0ED8D"/>
<stop offset="0.817708" stop-color="#FED365"/>
<stop offset="1" stop-color="#FAA49E"/>
</linearGradient>
</defs>
</svg>
