<svg width="264" height="381" viewBox="0 0 264 381" fill="none" xmlns="http://www.w3.org/2000/svg">
<path d="M155.5 267C153.1 231.8 164.5 207 170.5 199C206 209.5 224 247.5 226.5 265C192 271 170.5 268 155.5 267Z" fill="url(#paint0_linear_3957_0)"/>
<path d="M269.646 374.652C204.212 372.1 153.236 316.791 155.798 251.106C158.359 185.42 213.489 134.25 278.923 136.803C344.356 139.355 395.333 194.663 392.771 260.349C390.209 326.034 335.079 377.204 269.646 374.652Z" stroke="url(#paint1_linear_3957_0)" stroke-width="3"/>
<circle cx="186.584" cy="92.3625" r="176.717" transform="rotate(92.2336 186.584 92.3625)" stroke="url(#paint2_linear_3957_0)" stroke-width="6"/>
<circle cx="144" cy="277" r="83" stroke="url(#paint3_linear_3957_0)" stroke-width="4"/>
<defs>
<linearGradient id="paint0_linear_3957_0" x1="155.173" y1="199" x2="228.029" y2="200.638" gradientUnits="userSpaceOnUse">
<stop stop-color="#A9CDFF"/>
<stop offset="0.21875" stop-color="#72F6D1"/>
<stop offset="0.557292" stop-color="#A0ED8D"/>
<stop offset="0.817708" stop-color="#FED365"/>
<stop offset="1" stop-color="#FAA49E"/>
</linearGradient>
<linearGradient id="paint1_linear_3957_0" x1="398.967" y1="139.984" x2="383.952" y2="385.786" gradientUnits="userSpaceOnUse">
<stop stop-color="#A9CDFF"/>
<stop offset="0.21875" stop-color="#72F6D1"/>
<stop offset="0.557292" stop-color="#A0ED8D"/>
<stop offset="0.817708" stop-color="#FED365"/>
<stop offset="1" stop-color="#FAA49E"/>
</linearGradient>
<linearGradient id="paint2_linear_3957_0" x1="6.86774" y1="-87.3542" x2="374.013" y2="-79.2961" gradientUnits="userSpaceOnUse">
<stop stop-color="#A9CDFF"/>
<stop offset="0.21875" stop-color="#72F6D1"/>
<stop offset="0.557292" stop-color="#A0ED8D"/>
<stop offset="0.817708" stop-color="#FED365"/>
<stop offset="1" stop-color="#FAA49E"/>
</linearGradient>
<linearGradient id="paint3_linear_3957_0" x1="59" y1="192" x2="232.647" y2="195.811" gradientUnits="userSpaceOnUse">
<stop stop-color="#A9CDFF"/>
<stop offset="0.21875" stop-color="#72F6D1"/>
<stop offset="0.557292" stop-color="#A0ED8D"/>
<stop offset="0.817708" stop-color="#FED365"/>
<stop offset="1" stop-color="#FAA49E"/>
</linearGradient>
</defs>
</svg>
