<svg width="16" height="16" viewBox="0 0 16 16" fill="none" xmlns="http://www.w3.org/2000/svg">
<circle cx="8" cy="8" r="8" fill="#FEBF32"/>
<g clip-path="url(#clip0_4023_1023)">
<path d="M6.49998 10L7.49999 11L6.49998 12" stroke="#17171A" stroke-linecap="round" stroke-linejoin="round"/>
<path d="M3.99998 8.5V10C3.99998 10.2652 4.10534 10.5196 4.29287 10.7071C4.48041 10.8946 4.73476 11 4.99998 11H7.49998" stroke="#17171A" stroke-linecap="round" stroke-linejoin="round"/>
<path d="M9.49999 6L8.49998 5L9.49999 4" stroke="#17171A" stroke-linecap="round" stroke-linejoin="round"/>
<path d="M12 7.5V6C12 5.73478 11.8946 5.48043 11.7071 5.29289C11.5196 5.10536 11.2652 5 11 5H8.49998" stroke="#17171A" stroke-linecap="round" stroke-linejoin="round"/>
<path d="M5.99998 7H4.49998C4.23477 7 3.98041 6.89464 3.79288 6.70711C3.60534 6.51957 3.49998 6.26522 3.49998 6V4.5C3.49998 4.23478 3.60534 3.98043 3.79288 3.79289C3.98041 3.60536 4.23477 3.5 4.49998 3.5H5.99998C6.2652 3.5 6.51955 3.60536 6.70709 3.79289C6.89463 3.98043 6.99998 4.23478 6.99998 4.5V6C6.99998 6.26522 6.89463 6.51957 6.70709 6.70711C6.51955 6.89464 6.2652 7 5.99998 7Z" stroke="#17171A" stroke-linecap="round" stroke-linejoin="round"/>
<path d="M11.5 12.5H9.99998C9.73477 12.5 9.48041 12.3946 9.29288 12.2071C9.10534 12.0196 8.99998 11.7652 8.99998 11.5V10C8.99998 9.73478 9.10534 9.48043 9.29288 9.29289C9.48041 9.10536 9.73477 9 9.99998 9H11.5C11.7652 9 12.0196 9.10536 12.2071 9.29289C12.3946 9.48043 12.5 9.73478 12.5 10V11.5C12.5 11.7652 12.3946 12.0196 12.2071 12.2071C12.0196 12.3946 11.7652 12.5 11.5 12.5Z" stroke="#17171A" stroke-linecap="round" stroke-linejoin="round"/>
</g>
<defs>
<clipPath id="clip0_4023_1023">
<rect width="12" height="12" fill="white" transform="translate(1.99998 2)"/>
</clipPath>
</defs>
</svg>
